<?xml version="1.0" encoding="UTF-8" standalone="no"?><!DOCTYPE svg PUBLIC "-//W3C//DTD SVG 1.1//EN" "http://www.w3.org/Graphics/SVG/1.1/DTD/svg11.dtd"><svg width="100%" height="100%" viewBox="0 0 300 85" version="1.1" xmlns="http://www.w3.org/2000/svg" xmlns:xlink="http://www.w3.org/1999/xlink" xml:space="preserve" style="fill-rule:evenodd;clip-rule:evenodd;stroke-linejoin:round;stroke-miterlimit:1.41421;"><g><g><path d="M94.294,57.246l-0.764,-2.485l0,-13.471c0,-4.539 -4.204,-7.118 -8.217,-7.118c-4.013,0 -7.452,1.576 -8.838,6.115l3.631,1.385c0.812,-2.771 2.723,-3.631 5.111,-3.631c2.102,0 4.348,1.099 4.348,3.249l0,2.149c-0.526,0.383 -1.147,0.526 -1.911,0.526l-3.917,0c-4.204,0 -7.978,2.627 -7.978,7.166c0,4.347 3.965,7.166 7.978,7.166c2.149,0 4.347,-0.478 6.258,-1.625l0.525,1.72l3.774,-1.146Zm-4.729,-4.778c-1.72,1.481 -3.488,2.007 -5.828,2.007c-2.007,0 -4.013,-1.338 -4.013,-3.344c0,-2.007 1.958,-3.44 3.965,-3.44l4.251,0c0.478,0 1.099,-0.048 1.625,-0.239l0,5.016Z" style="fill-rule:nonzero;"/><path d="M117.702,53.997l-2.962,-2.675c-1.672,1.863 -3.009,3.105 -5.589,3.105c-5.016,0 -6.353,-3.917 -6.353,-8.217c0,-4.299 1.337,-8.217 6.353,-8.217c2.58,0 3.917,1.243 5.589,3.058l2.962,-2.628c-2.579,-2.77 -4.634,-4.251 -8.551,-4.251c-7.07,0 -10.557,5.446 -10.557,12.038c0,6.545 3.487,11.991 10.557,11.991c3.917,0 5.972,-1.433 8.551,-4.204Z" style="fill-rule:nonzero;"/><path d="M141.111,53.997l-2.962,-2.675c-1.672,1.863 -3.01,3.105 -5.59,3.105c-5.016,0 -6.353,-3.917 -6.353,-8.217c0,-4.299 1.337,-8.217 6.353,-8.217c2.58,0 3.918,1.243 5.59,3.058l2.962,-2.628c-2.58,-2.77 -4.634,-4.251 -8.552,-4.251c-7.07,0 -10.557,5.446 -10.557,12.038c0,6.545 3.487,11.991 10.557,11.991c3.918,0 5.972,-1.433 8.552,-4.204Z" style="fill-rule:nonzero;"/><path d="M165.331,46.21c0,-6.688 -2.341,-11.99 -9.937,-11.99c-7.643,0 -9.984,5.254 -9.984,12.038c0,6.688 2.341,11.895 9.984,11.895c7.644,0 9.937,-5.255 9.937,-11.943Zm-3.965,0.048c0,4.491 -0.956,8.026 -6.019,8.026c-5.016,0 -5.972,-3.535 -5.972,-8.026c0,-4.538 0.956,-8.169 5.972,-8.169c5.063,0 6.019,3.631 6.019,8.169Z" style="fill-rule:nonzero;"/><path d="M202.115,57.819l0,-14.141c0,-5.207 -3.296,-9.554 -8.933,-9.554c-2.675,0 -5.112,1.338 -6.736,3.392c-1.624,-2.198 -4.252,-3.392 -6.975,-3.392c-1.672,0 -3.344,0.717 -4.633,1.768l0,-1.338l-4.013,0l0,23.265l4.013,0l0,-14.332c0,-2.914 2.006,-5.398 4.633,-5.398c3.297,0 5.016,2.436 5.016,5.589l0,14.141l3.966,0l0,-14.141c0,-2.914 1.672,-5.589 4.729,-5.589c3.296,0 4.92,2.484 4.92,5.589l0,14.141l4.013,0Z" style="fill-rule:nonzero;"/><path d="M226.383,45.303c0.048,-6.067 -2.579,-11.036 -9.172,-11.036c-7.309,0 -10.08,5.399 -10.08,12.039c0,7.07 2.914,11.895 10.51,11.895c3.249,0 6.163,-1.051 8.504,-3.917l-2.771,-2.723c-1.577,2.006 -3.631,2.77 -5.733,2.77c-4.443,0 -6.353,-2.388 -6.545,-6.64l15.24,0l0.047,-2.388Zm-4.012,-1.481l-11.131,0c0.382,-3.631 2.293,-5.733 5.971,-5.733c3.44,0 5.016,2.389 5.16,5.733Z" style="fill-rule:nonzero;"/><path d="M250.556,57.819l0,-13.567c0,-6.259 -2.962,-10.08 -9.507,-10.08c-1.863,0 -3.774,0.812 -5.207,2.054l0,-1.672l-3.965,0l0,23.265l3.965,0l0,-14.188c0,-3.058 2.15,-5.446 5.207,-5.446c4.395,0 5.59,2.102 5.59,6.305l0,13.329l3.917,0Z" style="fill-rule:nonzero;"/><path d="M275.063,57.246l-0.764,-2.485l0,-30.287l-3.965,0l0,11.131c-1.577,-1.194 -2.819,-1.481 -5.208,-1.481c-7.5,0 -9.554,5.924 -9.554,12.086c0,6.163 2.054,12.039 9.554,12.039c2.437,0 4.061,-0.526 5.638,-1.672l0.525,1.815l3.774,-1.146Zm-4.729,-7.644c0,3.153 -2.341,4.729 -5.208,4.729c-4.824,0 -5.589,-3.821 -5.589,-8.121c0,-4.299 0.765,-8.121 5.589,-8.121c2.867,0 5.208,1.959 5.208,4.491l0,7.022Z" style="fill-rule:nonzero;"/><path d="M300,46.21c0,-6.688 -2.341,-11.99 -9.937,-11.99c-7.643,0 -9.984,5.254 -9.984,12.038c0,6.688 2.341,11.895 9.984,11.895c7.644,0 9.937,-5.255 9.937,-11.943Zm-3.965,0.048c0,4.491 -0.956,8.026 -6.019,8.026c-5.016,0 -5.972,-3.535 -5.972,-8.026c0,-4.538 0.956,-8.169 5.972,-8.169c5.063,0 6.019,3.631 6.019,8.169Z" style="fill-rule:nonzero;"/></g><g><path d="M81.783,80.307l-0.738,-0.69c-0.564,0.627 -1.019,0.988 -1.882,0.988c-1.773,0 -2.306,-1.396 -2.306,-2.918c0,-1.538 0.533,-2.918 2.306,-2.918c0.863,0 1.318,0.361 1.882,0.988l0.738,-0.69c-0.8,-0.879 -1.412,-1.286 -2.62,-1.286c-2.306,0 -3.404,1.757 -3.404,3.906c0,2.133 1.098,3.891 3.404,3.891c1.192,0 1.82,-0.408 2.62,-1.271Z" style="fill-rule:nonzero;"/><path d="M89.862,81.452l0,-4.487c0,-2.055 -0.941,-3.216 -3.059,-3.216c-0.706,0 -1.443,0.298 -1.898,0.832l0,-4.079l-1.051,0l0,10.95l1.051,0l0,-4.691c0,-1.098 0.768,-1.976 1.898,-1.976c1.584,0 2.024,0.784 2.024,2.259l0,4.408l1.035,0Z" style="fill-rule:nonzero;"/><path d="M97.675,81.295l-0.236,-0.722l0,-4.612c0,-1.427 -1.302,-2.212 -2.604,-2.212c-1.318,0 -2.4,0.518 -2.808,1.851l0.957,0.361c0.267,-0.863 0.988,-1.176 1.82,-1.176c0.721,0 1.6,0.329 1.6,1.176l0,0.8c-0.22,0.204 -0.502,0.267 -0.8,0.267l-1.318,0c-1.349,0 -2.541,0.847 -2.541,2.29c0,1.381 1.239,2.291 2.541,2.291c0.769,0 1.553,-0.188 2.196,-0.628l0.189,0.628l1.004,-0.314Zm-1.271,-1.459c-0.628,0.565 -1.271,0.753 -2.118,0.753c-0.722,0 -1.49,-0.486 -1.49,-1.271c0,-0.8 0.753,-1.317 1.474,-1.317l1.428,0c0.22,0 0.518,-0.047 0.706,-0.173l0,2.008Z" style="fill-rule:nonzero;"/><path d="M105.723,81.452l0,-4.487c0,-2.055 -0.942,-3.231 -3.06,-3.231c-0.706,0 -1.443,0.313 -1.898,0.847l0,-0.722l-1.051,0l0,7.593l1.051,0l0,-4.691c0,-1.098 0.769,-1.992 1.898,-1.992c1.585,0 2.024,0.8 2.024,2.275l0,4.408l1.036,0Z" style="fill-rule:nonzero;"/><path d="M114.053,81.578c0,-1.114 -0.989,-1.726 -2.008,-1.726c-0.879,0 -1.679,0.455 -2.557,0.455c-0.204,0 -0.44,-0.11 -0.44,-0.345c0,-0.44 0.361,-0.785 0.722,-1.02c0.267,0.047 0.549,0.094 0.831,0.094c1.742,0 2.762,-0.847 2.762,-2.636c0,-0.439 -0.063,-0.862 -0.22,-1.255c0.596,-0.282 0.816,-0.925 0.816,-1.553l-1.02,0c0.016,0.33 -0.063,0.644 -0.408,0.753c-0.533,-0.439 -1.239,-0.611 -1.93,-0.611c-1.678,0 -2.776,0.941 -2.776,2.666c0,0.848 0.345,1.773 1.129,2.212c-0.439,0.346 -0.863,0.816 -0.863,1.397c0,0.847 0.706,1.161 1.444,1.161c0.863,0 1.647,-0.408 2.51,-0.408c0.486,0 1.019,0.313 1.019,0.847c0,1.176 -1.474,1.851 -2.494,1.851c-0.8,0 -2.055,-0.173 -2.055,-1.208c0,-0.157 0.031,-0.314 0.094,-0.471l-0.925,-0.329c-0.095,0.267 -0.142,0.565 -0.142,0.847c0,1.647 1.679,2.102 3.028,2.102c1.6,0 3.483,-1.019 3.483,-2.823Zm-1.742,-5.178c0,1.13 -0.533,1.726 -1.694,1.726c-1.114,0 -1.741,-0.612 -1.741,-1.726c0,-1.16 0.612,-1.662 1.725,-1.662c1.13,0 1.71,0.517 1.71,1.662Z" style="fill-rule:nonzero;"/><path d="M121.834,77.342c0.016,-1.898 -0.847,-3.608 -2.949,-3.608c-2.338,0 -3.248,1.851 -3.248,3.969c0,2.243 0.957,3.89 3.389,3.89c1.067,0 2.008,-0.345 2.667,-1.192l-0.706,-0.706c-0.471,0.596 -1.224,0.878 -1.961,0.878c-1.632,0 -2.306,-1.019 -2.338,-2.557l5.13,0l0.016,-0.674Zm-1.051,-0.345l-4.063,0c0.11,-1.318 0.784,-2.244 2.165,-2.244c1.333,0 1.835,1.036 1.898,2.244Z" style="fill-rule:nonzero;"/><path d="M134.086,73.859l-1.129,0l-2.244,6.103l-2.212,-6.103l-1.113,0l2.761,7.593l-0.565,1.49c-0.251,0.675 -0.549,0.926 -1.271,0.926l-0.314,-0.016l-0.015,1.051l0.455,0c1.082,0.016 1.772,-0.611 2.133,-1.584l3.514,-9.46Z" style="fill-rule:nonzero;"/><path d="M141.836,77.656c0,-2.15 -0.753,-3.922 -3.2,-3.922c-2.448,0 -3.216,1.772 -3.216,3.937c0,2.149 0.768,3.891 3.216,3.891c2.447,0 3.2,-1.742 3.2,-3.906Zm-1.051,0.015c0,1.538 -0.329,2.871 -2.165,2.871c-1.835,0 -2.149,-1.333 -2.149,-2.871c0,-1.553 0.314,-2.902 2.149,-2.902c1.851,0 2.165,1.349 2.165,2.902Z" style="fill-rule:nonzero;"/><path d="M149.806,81.452l0,-7.593l-1.036,0l0,5.004c0,1.067 -0.925,1.695 -1.898,1.695c-1.6,0 -2.024,-0.847 -2.024,-2.353l0,-4.346l-1.051,0l0,4.346c0,2.337 0.941,3.373 3.075,3.373c0.675,0 1.38,-0.236 1.898,-0.691l0,0.565l1.036,0Z" style="fill-rule:nonzero;"/><path d="M156.52,74.141c-0.345,-0.313 -1.004,-0.423 -1.443,-0.423c-0.785,0 -1.365,0.141 -1.883,0.706l0,-0.565l-1.035,0l0,7.593l1.035,0l0,-5.099c0,-1.051 0.926,-1.615 1.883,-1.615c0.329,0 0.721,0.094 1.035,0.282l0.408,-0.879Z" style="fill-rule:nonzero;"/><path d="M164.521,81.452l0,-1.035c-0.612,0 -0.675,-0.283 -0.675,-0.816l0,-9.099l-1.067,0l0,9.162c0,1.145 0.565,1.788 1.742,1.788Z" style="fill-rule:nonzero;"/><path d="M167.957,71.067c0,-0.393 -0.314,-0.722 -0.722,-0.722c-0.392,0 -0.722,0.329 -0.722,0.722c0,0.392 0.33,0.721 0.722,0.721c0.408,0 0.722,-0.329 0.722,-0.721Zm-0.189,10.385l0,-7.593l-1.067,0l0,7.593l1.067,0Z" style="fill-rule:nonzero;"/><path d="M173.777,70.502c-1.867,0 -2.84,1.051 -2.84,2.886l0,0.471l-0.706,0l0,1.035l0.706,0l0,6.558l1.051,0l0,-6.558l1.553,0l0,-1.035l-1.553,0l0,-0.486c0,-1.24 0.487,-1.836 1.789,-1.836l0,-1.035Z" style="fill-rule:nonzero;"/><path d="M181.385,77.342c0.016,-1.898 -0.847,-3.608 -2.949,-3.608c-2.337,0 -3.247,1.851 -3.247,3.969c0,2.243 0.957,3.89 3.388,3.89c1.067,0 2.008,-0.345 2.667,-1.192l-0.706,-0.706c-0.47,0.596 -1.223,0.878 -1.961,0.878c-1.631,0 -2.306,-1.019 -2.337,-2.557l5.13,0l0.015,-0.674Zm-1.051,-0.345l-4.063,0c0.11,-1.318 0.784,-2.244 2.165,-2.244c1.334,0 1.836,1.036 1.898,2.244Z" style="fill-rule:nonzero;"/><path d="M189.167,71.067c0,-0.393 -0.314,-0.722 -0.722,-0.722c-0.392,0 -0.722,0.329 -0.722,0.722c0,0.392 0.33,0.721 0.722,0.721c0.408,0 0.722,-0.329 0.722,-0.721Zm-0.189,10.385l0,-7.593l-1.066,0l0,7.593l1.066,0Z" style="fill-rule:nonzero;"/><path d="M197.607,81.452l0,-4.487c0,-2.055 -0.942,-3.231 -3.059,-3.231c-0.706,0 -1.444,0.313 -1.899,0.847l0,-0.722l-1.051,0l0,7.593l1.051,0l0,-4.691c0,-1.098 0.769,-1.992 1.899,-1.992c1.584,0 2.023,0.8 2.023,2.275l0,4.408l1.036,0Z" style="fill-rule:nonzero;"/><path d="M209.671,79.287c0,-2.887 -4.644,-1.93 -4.644,-3.498c0,-0.8 0.941,-1.036 1.585,-1.036c0.909,0 1.49,0.251 1.898,1.098l0.941,-0.455c-0.596,-1.208 -1.522,-1.662 -2.839,-1.662c-1.255,0 -2.636,0.627 -2.636,2.055c0,2.745 4.644,1.537 4.644,3.498c0,0.926 -1.004,1.286 -1.789,1.286c-1.082,0 -1.788,-0.376 -2.071,-1.474l-1.035,0.329c0.424,1.585 1.553,2.15 3.106,2.15c1.381,0 2.84,-0.769 2.84,-2.291Z" style="fill-rule:nonzero;"/><path d="M217.232,81.295l-0.235,-0.722l0,-4.612c0,-1.427 -1.302,-2.212 -2.604,-2.212c-1.318,0 -2.401,0.518 -2.808,1.851l0.957,0.361c0.266,-0.863 0.988,-1.176 1.819,-1.176c0.722,0 1.601,0.329 1.601,1.176l0,0.8c-0.22,0.204 -0.502,0.267 -0.801,0.267l-1.317,0c-1.349,0 -2.542,0.847 -2.542,2.29c0,1.381 1.24,2.291 2.542,2.291c0.768,0 1.553,-0.188 2.196,-0.628l0.188,0.628l1.004,-0.314Zm-1.27,-1.459c-0.628,0.565 -1.271,0.753 -2.118,0.753c-0.722,0 -1.491,-0.486 -1.491,-1.271c0,-0.8 0.753,-1.317 1.475,-1.317l1.428,0c0.219,0 0.517,-0.047 0.706,-0.173l0,2.008Z" style="fill-rule:nonzero;"/><path d="M222.66,70.502c-1.867,0 -2.839,1.051 -2.839,2.886l0,0.471l-0.706,0l0,1.035l0.706,0l0,6.558l1.051,0l0,-6.558l1.553,0l0,-1.035l-1.553,0l0,-0.486c0,-1.24 0.486,-1.836 1.788,-1.836l0,-1.035Z" style="fill-rule:nonzero;"/><path d="M230.269,77.342c0.016,-1.898 -0.847,-3.608 -2.949,-3.608c-2.338,0 -3.248,1.851 -3.248,3.969c0,2.243 0.957,3.89 3.389,3.89c1.067,0 2.008,-0.345 2.667,-1.192l-0.706,-0.706c-0.471,0.596 -1.224,0.878 -1.961,0.878c-1.632,0 -2.306,-1.019 -2.338,-2.557l5.13,0l0.016,-0.674Zm-1.051,-0.345l-4.063,0c0.109,-1.318 0.784,-2.244 2.165,-2.244c1.333,0 1.835,1.036 1.898,2.244Z" style="fill-rule:nonzero;"/><path d="M234.975,74.879l0,-1.036l-1.176,0l0,-2.212l-1.02,0l0,2.212l-1.035,0l0,1.036l1.035,0l0,4.722c0,1.035 0.455,1.851 1.584,1.851l0.424,0l0,-1.035c-0.737,0 -0.988,-0.016 -0.988,-0.816l0,-4.722l1.176,0Z" style="fill-rule:nonzero;"/><path d="M243.008,73.859l-1.13,0l-2.243,6.103l-2.212,-6.103l-1.114,0l2.761,7.593l-0.565,1.49c-0.251,0.675 -0.549,0.926 -1.271,0.926l-0.313,-0.016l-0.016,1.051l0.455,0c1.082,0.016 1.773,-0.611 2.133,-1.584l3.515,-9.46Z" style="fill-rule:nonzero;"/></g><path d="M56.521,56.521l-18.641,0l0,-27.139l18.641,17.725l0,9.414Zm-20.635,0l-7.626,0l-0.091,0c-11.879,-0.038 -22.042,-7.42 -26.183,-17.84l33.9,0l0,17.84Zm-6.112,-37.598l14.651,-13.84c7.31,5.11 12.096,13.589 12.096,23.177l0,16.095l-26.747,-25.432Zm-11.132,17.764l-17.362,0c-0.832,-2.662 -1.28,-5.492 -1.28,-8.427c0,-12.22 7.774,-22.64 18.642,-26.578l0,35.005Zm1.994,-35.645c2.426,-0.679 4.983,-1.042 7.624,-1.042c5.275,0 10.214,1.448 14.441,3.968l-22.065,20.844l0,-23.77Z" style="fill:#ff5c4c;"/></g></svg>