<?xml version="1.0" encoding="utf-8"?>
<!-- Generator: Adobe Illustrator 22.0.1, SVG Export Plug-In . SVG Version: 6.00 Build 0)  -->
<svg version="1.1" id="Capa_1" xmlns="http://www.w3.org/2000/svg" xmlns:xlink="http://www.w3.org/1999/xlink" x="0px" y="0px"
	 viewBox="0 0 56 56" style="enable-background:new 0 0 56 56;" xml:space="preserve">
<style type="text/css">
	.st0{fill:#E75152;}
	.st1{fill:#FFFFFF;}
	.st2{fill:#67C6B9;}
</style>
<g>
	<g>
		<path class="st0" d="M44.6,52H9.4C4.7,52,1,48.3,1,43.6V8.4C1,3.7,4.7,0,9.4,0h35.3C49.3,0,53,3.7,53,8.4v35.3
			C53,48.3,49.3,52,44.6,52z"/>
		<path class="st1" d="M45,14H27c-0.6,0-1-0.4-1-1s0.4-1,1-1h18c0.6,0,1,0.4,1,1S45.6,14,45,14z"/>
		<path class="st1" d="M45,28H27c-0.6,0-1-0.4-1-1s0.4-1,1-1h18c0.6,0,1,0.4,1,1S45.6,28,45,28z"/>
		<path class="st1" d="M45,42H27c-0.6,0-1-0.4-1-1s0.4-1,1-1h18c0.6,0,1,0.4,1,1S45.6,42,45,42z"/>
		<path class="st1" d="M13.1,17c-0.2,0-0.4-0.1-0.6-0.2l-4.6-3.4c-0.4-0.3-0.5-1-0.2-1.4c0.3-0.4,1-0.5,1.4-0.2l3.8,2.9l6.2-7.3
			c0.4-0.4,1-0.5,1.4-0.1c0.4,0.4,0.5,1,0.1,1.4l-6.9,8C13.6,16.9,13.4,17,13.1,17z"/>
		<path class="st1" d="M13.1,31c-0.2,0-0.4-0.1-0.6-0.2l-4.6-3.4c-0.4-0.3-0.5-1-0.2-1.4c0.3-0.4,1-0.5,1.4-0.2l3.8,2.9l6.2-7.3
			c0.4-0.4,1-0.5,1.4-0.1c0.4,0.4,0.5,1,0.1,1.4l-6.9,8C13.6,30.9,13.4,31,13.1,31z"/>
		<path class="st1" d="M13.1,46c-0.2,0-0.4-0.1-0.6-0.2l-4.6-3.4c-0.4-0.3-0.5-1-0.2-1.4c0.3-0.4,1-0.5,1.4-0.2l3.8,2.9l6.2-7.3
			c0.4-0.4,1-0.5,1.4-0.1c0.4,0.4,0.5,1,0.1,1.4l-6.9,8C13.6,45.9,13.4,46,13.1,46z"/>
	</g>
	<g>
		<polygon class="st2" points="43,34 46.7,41.2 55,42.4 49,48 50.4,56 43,52.2 35.6,56 37,48 31,42.4 39.3,41.2 		"/>
	</g>
</g>
</svg>
