<?xml version="1.0" encoding="utf-8"?>
<!-- Generator: Adobe Illustrator 22.0.1, SVG Export Plug-In . SVG Version: 6.00 Build 0)  -->
<svg version="1.1" id="Capa_1" xmlns="http://www.w3.org/2000/svg" xmlns:xlink="http://www.w3.org/1999/xlink" x="0px" y="0px"
	 viewBox="0 0 512 512" style="enable-background:new 0 0 512 512;" xml:space="preserve">
<style type="text/css">
	.st0{display:none;fill:#303C42;}
	.st1{fill:#CF4848;}
	.st2{fill:#E75152;}
	.st3{display:none;fill:#D7CCC8;}
	.st4{display:none;opacity:0.1;enable-background:new    ;}
	.st5{display:none;}
	.st6{display:inline;opacity:0.2;fill:#FFFFFF;enable-background:new    ;}
	.st7{fill:#F9F9F9;}
	.st8{fill:#FEDBAB;}
	.st9{fill:#67C6B9;}
	.st10{display:none;fill:url(#SVGID_1_);}
</style>
<path class="st0" d="M468.2,375.4c0.4-2,1.1-4,1.1-6.1c0-36.9-27.8-84.5-35.1-96.4c-0.3-80.2-14.6-138.7-73.2-158.7
	c2.7-8.4,7.5-19.5,12-29.7c8.6-19.7,16.7-38.3,16.7-50.6C389.7,17,379.2,0,355.8,0c-15.7,0-21.5,7.4-24.7,13.8
	c-0.2-0.2-0.3-0.4-0.5-0.6C326.3,8.3,318.9,0,301.6,0c-19.5,0-32.2,17-38.4,30.9c-7.9,0.4-19.4,2.3-27,9.3
	c-4.8,4.4-7.3,10.3-7.3,16.9c0,11.1,8,23.9,16.4,37.4c4.2,6.7,8.6,14,11.4,20.1c-57.8,20.3-71.9,78.5-72.3,158.3
	c-3.5,5.7-11.8,20-19.5,37.2c-17,1.5-31.7,4.8-41,7.4c-3.2-11.2-12.3-20.2-24.4-22.6l-86.9-17.4c-3.1-0.6-6.4,0.2-8.9,2.2
	c-2.5,2-3.9,5.1-3.9,8.3v170.7c0,5.9,4.8,10.7,10.7,10.7h66.8c13.2,0,24.4-8.4,29.2-20.1C130.6,460.6,241.1,512,288,512
	c41.4,0,126.5-41.9,182.9-69.6c14.7-7.2,26.9-13.2,34.8-16.7c3.9-1.7,6.4-5.5,6.4-9.8C512,395.7,494.7,380.6,468.2,375.4z"/>
<g>
	<path class="st1" d="M184.7,278.2c0-130.7,32.5-177,124.2-177S433,147.5,433,278.2c0,2.5,0.7,4.9,2,6.9
		c0.4,0.6,40.1,72.1,40.1,114.2c0,9.5-29.1,18.7-41.9,25.1c-24.5,16.5-27.8,10.1-53.7,17.5c-16,0-48.4,9.8-97,0
		c-22.2-4.5-96.5-18.3-112.5-26c-17.3-8.3-21.5-77.5-6-97.2c9.5-19.4,18.5-33.6,18.7-33.7C184,283,184.7,280.6,184.7,278.2z"/>
	<path class="st2" d="M265.3,81.3c-6-9.5-33.8-33.9-29.7-39.2c4.1-5.3,18.7-3,25.1-2.6c5.3,0.6,12.3,3.2,13.8-1.8
		c2-6.5,10.4-25,22.3-25c8.3,0,10.4,2.4,14,6.4c3.6,4,9,10.1,19.2,10.1c12.7,0,13.4-6.8,15.6-10.9c1.2-2.3,5.2-5.6,9.3-5.6
		c3.7,0,13.5,0,13.5,13.4c0,8.4-12.8,32.6-19.9,48.9c-5.7,12.9,11.2,21.6,8.1,31.9c-10.1-1.7-32.8-4.7-41.9-5.2
		c-12.4-0.6-39.3,2.3-49.6,4.1C261.7,97,271.4,91,265.3,81.3z"/>
	<path class="st3" d="M311.5,106.7c-0.3,0-0.6,0-0.9,0.1c2.7,0,5.1,0.2,7.7,0.3C316,106.9,313.9,106.7,311.5,106.7z"/>
</g>
<path class="st4" d="M355.8,21.3c-3.9,0-5,0.7-5,0.7c0,0-0.1,0.1-0.1,0.2c2.6,1.1,5.3,3.8,5.3,11.7c0,7.9-6.2,26.8-11.3,42.1
	c-3.9,11.8-7.5,23-9.7,32.5c1.7,0.2,3.6,0.4,5.3,0.7c2.9-9.7,7.9-21.2,13.1-33.2c6.7-15.2,14.9-34.2,14.9-42.1
	C368.4,21.3,359.2,21.3,355.8,21.3z"/>
<g class="st5">
	<path class="st6" d="M277,83.3c-4.2-8.9-9.9-21.2-9.5-27.4c2.4-2.9,9.9-3.9,14.4-3.6c3.7,0.6,7.2-2.8,8.2-7.5
		c1.4-5.8,6.9-21.8,14.6-23.2c-1-0.1-1.8-0.3-3.1-0.3c-11.1,0-18.9,17.4-20.8,23.4c-1.4,4.7-6,8.1-10.9,7.5
		c-5.9-0.3-15.9,0.6-19.1,3.6c-0.5,6.3,7.1,18.5,12.7,27.4c5.6,9.1,10.9,17.7,14.2,26c3.1-0.5,6.4-0.8,9.6-1.2
		C284.7,100.2,281,91.9,277,83.3z"/>
	<path class="st6" d="M222.9,296.2c0.9-1.9,1.4-4.1,1.4-6.3c0-119.1,22.5-161.6,85.9-161.9c-0.3,0-0.5,0-0.8,0
		c-76.4,0-103.5,38.7-103.5,148c0,2-0.6,4.1-1.7,5.8c-0.1,0.1-7.7,12-15.6,28.2c9.3,0.8,17.6,3.1,25.6,6.1
		C219,304.3,222.8,296.4,222.9,296.2z"/>
</g>
<path class="st4" d="M414.6,281.8c-1.1-1.7-1.7-3.7-1.7-5.8c0-106.2-25.7-145.6-97.3-147.8c60.1,2.2,81.7,45.3,81.7,161.7
	c0,2.2,0.5,4.4,1.4,6.3c0.2,0.5,21.1,43.2,26.6,79.6c8.3-1.5,16-2.5,21.9-2.5c0.5-1.3,0.8-2.7,0.8-4
	C448,334.1,414.9,282.3,414.6,281.8z"/>
<path class="st7" d="M309.3,277.3H288c-5.9,0-10.7,4.8-10.7,10.7s4.8,10.7,10.7,10.7h10.7c0,5.9,4.8,10.7,10.7,10.7
	s10.7-4.8,10.7-10.7v-2c12.4-4.4,21.3-16.1,21.3-30c0-17.6-14.4-32-32-32c-5.9,0-10.7-4.8-10.7-10.7c0-5.9,4.8-10.7,10.7-10.7h21.3
	c5.9,0,10.7-4.8,10.7-10.7s-4.8-10.7-10.7-10.7H320c0-5.9-4.8-10.7-10.7-10.7s-10.7,4.8-10.7,10.7v2c-12.4,4.4-21.3,16.1-21.3,30
	c0,17.6,14.4,32,32,32c5.9,0,10.7,4.8,10.7,10.7C320,272.6,315.2,277.3,309.3,277.3z"/>
<path class="st8" d="M461.5,423.3c-51.3,25.2-101.1,64.1-137.5,64.1c-38.8,0-169.3-33.6-205.3-51.1c0,0-6.6-3.4-6.6-3.4
	c5.8-35.3,11.7-70.3,17.7-101.4c13.3-3.7,30.1-6,50.7-2.9c7.2,1.1,15.5,1.6,44.1,15.4c13.8,6.7,29.5,14.2,50.6,18.5
	c46.4,9.4,66.1,19,66.1,32.2c0,2.6-0.8,4.2-2.8,5.7c-6.8,5.1-28.5,18.2-128-11.4c-5.7-1.6-11.3-2.1-13,3.5
	c-1.7,5.6,7.1,7.6,12.8,9.3c49.1,14.6,79.6,21.3,106.3,21.3c17.4,0,30.4-1.9,34.8-3.3c3.3-1,12.3-3.5,13-3.7
	c18.9-5.8,63.1-21.3,83.7-21.3c17.4,0,35.7,5.3,41.1,15.2C481.6,413.4,472.3,418,461.5,423.3z"/>
<path class="st9" d="M99.2,442H30.6V295l90.6,14.8c6.8,1.1,11.3,6.4,10.3,12l-19.4,111C111.2,438.1,105.7,442,99.2,442z"/>
<path class="st4" d="M21.2,373.3V448h56.2c5.3,0,9.8-3.9,10.6-9.2l9.4-65.5L21.2,373.3L21.2,373.3z"/>
<linearGradient id="SVGID_1_" gradientUnits="userSpaceOnUse" x1="-90.9301" y1="21.1085" x2="-68.8328" y2="31.411" gradientTransform="matrix(21.3333 0 0 21.3333 1992.665 -277.9777)">
	<stop  offset="0" style="stop-color:#FFFFFF;stop-opacity:0.2"/>
	<stop  offset="1" style="stop-color:#FFFFFF;stop-opacity:0"/>
</linearGradient>
<path class="st10" d="M468.2,375.4c0.4-2,1.1-4,1.1-6.1c0-36.9-27.8-84.5-35.1-96.4c-0.3-80.2-14.6-138.7-73.2-158.7
	c2.7-8.4,7.5-19.5,12-29.7c8.6-19.7,16.7-38.3,16.7-50.6C389.7,17,379.2,0,355.8,0c-15.7,0-21.5,7.4-24.7,13.8
	c-0.2-0.2-0.3-0.4-0.5-0.6C326.3,8.3,318.9,0,301.6,0c-19.5,0-32.2,17-38.4,30.9c-7.9,0.4-19.4,2.3-27,9.3
	c-4.8,4.4-7.3,10.3-7.3,16.9c0,11.1,8,23.9,16.4,37.4c4.2,6.7,8.6,14,11.4,20.1c-57.8,20.3-71.9,78.5-72.3,158.3
	c-3.5,5.7-11.8,20-19.5,37.2c-17,1.5-31.7,4.8-41,7.4c-3.2-11.2-12.3-20.2-24.4-22.6l-86.9-17.4c-3.1-0.6-6.4,0.2-8.9,2.2
	c-2.5,2-3.9,5.1-3.9,8.3v170.7c0,5.9,4.8,10.7,10.7,10.7h66.8c13.2,0,24.4-8.4,29.2-20.1C130.6,460.6,241.1,512,288,512
	c41.4,0,126.5-41.9,182.9-69.6c14.7-7.2,26.9-13.2,34.8-16.7c3.9-1.7,6.4-5.5,6.4-9.8C512,395.7,494.7,380.6,468.2,375.4z"/>
</svg>
