<?xml version="1.0" encoding="utf-8"?>
<!-- Generator: Adobe Illustrator 22.0.1, SVG Export Plug-In . SVG Version: 6.00 Build 0)  -->
<svg version="1.1" id="Capa_1" xmlns="http://www.w3.org/2000/svg" xmlns:xlink="http://www.w3.org/1999/xlink" x="0px" y="0px"
	 viewBox="0 0 469.3 469.3" style="enable-background:new 0 0 469.3 469.3;" xml:space="preserve">
<style type="text/css">
	.st0{fill:#2E4150;}
	.st1{fill:#FEDBAB;}
	.st2{display:none;opacity:0.2;fill:#FFFFFF;enable-background:new    ;}
	.st3{fill:#E75152;}
	.st4{display:none;fill:url(#SVGID_1_);}
</style>
<path class="st0" d="M298.7,128c-7.4,0-14.6,0.6-21.8,1.6C272.1,57.3,212,0,138.7,0C62.2,0,0,62.2,0,138.7
	C0,212,57.3,272.1,129.6,276.9c-0.9,7.2-1.6,14.4-1.6,21.8c0,94.1,76.6,170.7,170.7,170.7s170.7-76.6,170.7-170.7
	S392.8,128,298.7,128z"/>
<path class="st1" d="M21.3,138.7C21.3,74,74,21.3,138.7,21.3c62.7,0,114,49.5,117,112.4c-34,8.9-63.8,27.9-86.1,53.7
	c-1.7-3.6-5.3-6.1-9.5-6.1h-21.3c-17.6,0-32-14.4-32-32h32c5.9,0,10.7-4.8,10.7-10.7s-4.8-10.7-10.7-10.7h-32c0-17.6,14.4-32,32-32
	H160c5.9,0,10.7-4.8,10.7-10.7s-4.8-10.7-10.7-10.7h-21.3c-29.4,0-53.3,23.9-53.3,53.3c-5.9,0-10.7,4.8-10.7,10.7
	s4.8,10.7,10.7,10.7c0,29.4,23.9,53.3,53.3,53.3h19c-10.9,16-19,33.9-24,53.1C71.3,253.1,21.3,201.7,21.3,138.7z"/>
<path class="st2" d="M43,160.3C43,95.6,95.7,42.9,160.4,42.9c26.9,0,51.3,9.5,71.1,24.8c-21.4-28.1-54.9-46.4-92.7-46.4
	C74,21.3,21.3,74,21.3,138.7c0,38.3,18.6,72.1,47.1,93.5C52.7,212.2,43,187.5,43,160.3z"/>
<circle class="st1" cx="298.7" cy="298.7" r="149.3"/>
<path class="st2" d="M170.7,320c0-82.3,67-149.3,149.3-149.3c35.7,0,68.6,12.7,94.3,33.7c-27.4-33.5-69.1-55-115.7-55
	c-82.3,0-149.3,67-149.3,149.3c0,46.6,21.5,88.2,55,115.6C183.3,388.6,170.7,355.7,170.7,320z"/>
<g>
	<path class="st0" d="M293.3,256h37.3c5.9,0,10.7-4.8,10.7-10.7s-4.8-10.7-10.7-10.7h-21.3V224c0-5.9-4.8-10.7-10.7-10.7
		S288,218.1,288,224v11.2c-18,2.6-32,18-32,36.8c0,20.6,16.8,37.3,37.3,37.3H304c8.8,0,16,7.2,16,16s-7.2,16-16,16h-37.3
		c-5.9,0-10.7,4.8-10.7,10.7s4.8,10.7,10.7,10.7H288v10.7c0,5.9,4.8,10.7,10.7,10.7s10.7-4.8,10.7-10.7v-11.2c18-2.6,32-18,32-36.8
		c0-20.6-16.8-37.3-37.3-37.3h-10.7c-8.8,0-16-7.2-16-16S284.5,256,293.3,256z"/>
	<path class="st3" d="M330.6,21.3c46.8,0.2,79,35.9,91.4,76.4l-22.6-11.3c-5.3-2.6-11.7-0.5-14.3,4.8c-2.6,5.3-0.5,11.7,4.8,14.3
		l42.7,21.3c1.5,0.8,3.2,1.1,4.8,1.1c3.9,0,7.7-2.2,9.5-5.9l21.3-42.7c2.6-5.3,0.5-11.7-4.8-14.3c-5.3-2.6-11.7-0.5-14.3,4.8
		l-8.3,16.5C424.9,40.1,386.1,0.2,330.7,0c0,0,0,0,0,0C324.8,0,320,4.8,320,10.6C320,16.5,324.8,21.3,330.6,21.3z"/>
	<path class="st3" d="M138.8,447.9c-46.8-0.2-79-35.9-91.4-76.4L70,382.8c5.3,2.6,11.7,0.5,14.3-4.8c2.6-5.3,0.5-11.7-4.8-14.3
		l-42.7-21.3c-5.3-2.6-11.7-0.5-14.3,4.8L1.3,389.8c-2.6,5.3-0.5,11.7,4.8,14.3c1.5,0.8,3.2,1.1,4.8,1.1c3.9,0,7.7-2.2,9.5-5.9
		l8.3-16.5c16,46.3,54.7,86.3,110.2,86.4c0,0,0,0,0,0c5.9,0,10.6-4.8,10.7-10.6C149.5,452.7,144.7,447.9,138.8,447.9z"/>
</g>
<linearGradient id="SVGID_1_" gradientUnits="userSpaceOnUse" x1="-134.065" y1="21.0724" x2="-111.8904" y2="31.41" gradientTransform="matrix(21.3333 0 0 21.3333 2853.4421 -327.4227)">
	<stop  offset="0" style="stop-color:#FFFFFF;stop-opacity:0.2"/>
	<stop  offset="1" style="stop-color:#FFFFFF;stop-opacity:0"/>
</linearGradient>
<path class="st4" d="M138.8,447.9c-46.8-0.2-79-35.9-91.4-76.4L70,382.8c5.3,2.6,11.7,0.5,14.3-4.8c2.6-5.3,0.5-11.7-4.8-14.3
	l-42.7-21.3c-5.3-2.6-11.7-0.5-14.3,4.8L1.3,389.8c-2.6,5.3-0.5,11.7,4.8,14.3c1.5,0.8,3.2,1.1,4.8,1.1c3.9,0,7.7-2.2,9.5-5.9
	l8.3-16.5c16,46.3,54.7,86.3,110.2,86.4c0,0,0,0,0,0c5.9,0,10.6-4.8,10.7-10.6C149.5,452.7,144.7,447.9,138.8,447.9z M330.6,21.3
	c46.8,0.2,79,35.9,91.4,76.4l-22.6-11.3c-5.3-2.6-11.7-0.5-14.3,4.8c-2.6,5.3-0.5,11.7,4.8,14.3l42.7,21.3c1.5,0.8,3.2,1.1,4.8,1.1
	c3.9,0,7.7-2.2,9.5-5.9l21.3-42.7c2.6-5.3,0.5-11.7-4.8-14.3c-5.3-2.6-11.7-0.5-14.3,4.8l-8.3,16.5C424.9,40.1,386.1,0.2,330.7,0
	c0,0,0,0,0,0C324.8,0,320,4.8,320,10.6C320,16.5,324.8,21.3,330.6,21.3z M298.7,128c-7.4,0-14.6,0.6-21.8,1.6
	C272.1,57.3,212,0,138.7,0C62.2,0,0,62.2,0,138.7C0,212,57.3,272.1,129.6,276.9c-0.9,7.2-1.6,14.4-1.6,21.8
	c0,94.1,76.6,170.7,170.7,170.7s170.7-76.6,170.7-170.7S392.8,128,298.7,128z"/>
</svg>
