<?xml version="1.0" encoding="utf-8"?>
<!-- Generator: Adobe Illustrator 22.0.1, SVG Export Plug-In . SVG Version: 6.00 Build 0)  -->
<svg version="1.1" id="Capa_1" xmlns="http://www.w3.org/2000/svg" xmlns:xlink="http://www.w3.org/1999/xlink" x="0px" y="0px"
	 viewBox="0 0 512 512" style="enable-background:new 0 0 512 512;" xml:space="preserve">
<style type="text/css">
	.st0{fill:#FEDBAB;}
	.st1{fill:#67C6B9;}
	.st2{fill:#CF4848;}
	.st3{fill:#E75152;}
</style>
<path class="st0" d="M506,290l-87,126c-16.8,22.5-43.8,36-72,36H90L74.4,294.2L90,280.1c22.8-20.1,37.8-33.9,67.2-40.8
	c35.1-8.1,70,1.8,93.1,22.8c6,5.1,9.6,9.9,17.1,9.9h3.6c69.6,0,6.7,0,76,0c16.5,0,30,13.5,30,30s-13.5,30-30,30h-61
	c-8.4,0-15,6.6-15,15s6.6,15,15,15h70.9c5.7,0,16.5-3.6,22.2-9.6l81-100.8c10.2-11.1,27.3-12.9,39.6-3.9
	C513.2,257.6,515.9,276.8,506,290z"/>
<g>
	<path class="st0" d="M271,347v-75c69.6,0,6.7,0,76,0c16.5,0,30,13.5,30,30s-13.5,30-30,30h-61C277.6,332,271,338.6,271,347z"/>
	<path class="st0" d="M506,290l-87,126c-16.8,22.5-43.8,36-72,36h-76V347c0,8.4,6.6,15,15,15h70.9c5.7,0,16.5-3.6,22.2-9.6l81-100.8
		c10.2-11.1,27.3-12.9,39.6-3.9C513.2,257.6,515.9,276.8,506,290z"/>
</g>
<path class="st1" d="M91.6,503.7l-90-180c-3.7-7.4-0.7-16.4,6.7-20.1L41.5,287c22.2-11.1,49.3-2.1,60.4,20.1L165,433.5
	c11.1,22.3,2.1,49.3-20.1,60.4l-33.2,16.6C104.3,514.1,95.3,511.1,91.6,503.7z"/>
<path class="st2" d="M271,90c-49.5,0-91,41.5-91,91v16c0,8.4,6.6,15,15,15h152c8.4,0,15-6.6,15-15v-16C362,131.5,320.5,90,271,90z"
	/>
<path class="st2" d="M362,181v16c0,8.4-6.6,15-15,15h-76V90C320.5,90,362,131.5,362,181z"/>
<path class="st3" d="M271,0c-33,0-61,27-61,60s28,60,61,60s61-27,61-60S304,0,271,0z"/>
<path class="st3" d="M332,60c0,33-28,60-61,60V0C304,0,332,27,332,60z"/>
</svg>
