<?xml version="1.0" encoding="utf-8"?>
<!-- Generator: Adobe Illustrator 22.0.1, SVG Export Plug-In . SVG Version: 6.00 Build 0)  -->
<svg version="1.1" id="Layer_1" xmlns="http://www.w3.org/2000/svg" xmlns:xlink="http://www.w3.org/1999/xlink" x="0px" y="0px"
	 viewBox="0 0 512 512" style="enable-background:new 0 0 512 512;" xml:space="preserve">
<style type="text/css">
	.st0{fill:#2E2E2E;}
	.st1{fill:#E3C498;}
	.st2{display:none;fill:#D29B6E;}
	.st3{fill:#E75152;}
	.st4{fill:#67C6B9;}
	.st5{fill:#CF4848;}
	.st6{fill:#FEDBAB;}
	.st7{display:none;fill:#E6AF78;}
	.st8{fill:#2E4150;}
	.st9{fill:#435B6C;}
</style>
<path class="st0" d="M423.7,401.3c0.1,8.9-4.1,16.9-10.5,20.7c-40,23.6-95.7,38.3-157.2,38.3S138.8,445.6,98.8,422
	c-6.4-3.8-10.5-11.8-10.5-20.7C89.6,187,120.4,0,256,0S422.4,187,423.7,401.3z"/>
<g id="XMLID_2_">
	<g>
		<path class="st1" d="M450.2,437.9v56.5c0,9.8-7.9,17.7-17.7,17.7H79.4c-9.8,0-17.7-7.9-17.7-17.7v-56.5c0-19,12.2-35.9,30.2-41.9
			l84.1-28c10.8-3.6,18.1-13.7,18.1-25.1v-42.7h123.6v42.7c0,11.4,7.3,21.5,18.1,25.1l84.1,28C438,402,450.2,418.9,450.2,437.9z"/>
	</g>
	<g>
	</g>
</g>
<path class="st2" d="M194.2,342.8c0,10.7-6.5,20.2-16.2,24.3c98.9,16.9,139.7-53.8,139.7-53.8l0,0v-13.2H194.2V342.8z"/>
<path class="st3" d="M419.9,396l-68.7-22.9c-32.7,44.4-70.9,69.2-95.3,77.1c-24.4-7.9-62.6-32.7-95.3-77.1L91.8,396
	c-18,6-30.2,22.9-30.2,41.9v56.5c0,9.8,7.9,17.7,17.7,17.7h353.1c9.8,0,17.7-7.9,17.7-17.7v-56.5C450.1,418.9,437.9,402,419.9,396z"
	/>
<path class="st4" d="M142.7,185.5l-10.3,0c-9.8,0-17.7,7.9-17.7,17.7V238c0,9.9,8.1,17.8,18,17.7l15.2-0.3L142.7,185.5z"/>
<g>
	<path class="st5" d="M122.1,457.5l-49-49c-7.1,7.9-11.3,18.2-11.3,29.3v56.5c0,9.8,7.9,17.7,17.7,17.7h53v-29.5
		C132.4,473.1,128.7,464.1,122.1,457.5z"/>
	<path class="st5" d="M389.9,457.5l49-49c7.1,7.9,11.3,18.2,11.3,29.3v56.5c0,9.8-7.9,17.7-17.7,17.7h-53v-29.5
		C379.6,473.1,383.3,464.1,389.9,457.5z"/>
	<g id="XMLID_1_">
		<g>
			<path class="st3" d="M368.7,378.9l-3.2,4.7c-35.5,48.1-77,74.6-104,83.4l-5.5,1.8l-5.5-1.8c-27-8.8-68.6-35.3-104-83.4l-3.2-4.7
				l17.4-5.8c32.7,44.4,70.9,69.2,95.3,77.1c24.4-7.9,62.6-32.7,95.3-77.1L368.7,378.9z"/>
		</g>
		<g>
		</g>
	</g>
</g>
<path class="st4" d="M132.5,185.4C132.4,185.4,132.4,185.4,132.5,185.4l-0.1,70.2c0.1,0,0.2,0,0.4,0l15.2-0.3l-5.3-69.9L132.5,185.4
	z"/>
<path class="st4" d="M369.3,185.5l10.3,0c9.8,0,17.7,7.9,17.7,17.7V238c0,9.9-8.1,17.8-18,17.7l-15.2-0.3L369.3,185.5z"/>
<path class="st4" d="M379.5,185.4C379.5,185.4,379.6,185.4,379.5,185.4l0.1,70.2c-0.1,0-0.2,0-0.4,0l-15.2-0.3l5.3-69.9L379.5,185.4
	z"/>
<path class="st6" d="M141.2,105.9V144c0,15.8,0.6,31.6,1.8,47.4l5.1,66.1c1.2,15.8,9.4,30.2,22.4,39.3l53.3,37.3
	c9.4,6.6,20.6,10.1,32.1,10.1h0c11.5,0,22.7-3.5,32.1-10.1l53.3-37.3c13-9.1,21.2-23.5,22.4-39.3l5.1-66.1
	c1.2-15.8,1.8-31.6,1.8-47.4v-38.1H141.2z"/>
<path class="st7" d="M370.1,105.9H141.2V144c0,4.9,0.2,9.8,0.3,14.7l0,0v0c0.1,5.9,0.4,11.8,0.7,17.7c0,0,0,0,0,0v0
	c0.3,5,0.5,10,0.9,15l5.1,66.1c1.2,15.8,9.4,30.2,22.4,39.3l53.3,37.3c9.4,6.6,20.6,10.1,32.1,10.1c-14.2,0-29.7-24.4-39.5-42.9
	c-6.4-12.2-9.9-25.7-10.1-39.5l-1.5-79.9c-0.1-6.4,4.5-11.8,10.8-12.9c47.3-8.2,84.9-21.6,106.4-31.1c17,28.1,39.5,36.6,42.4,37.6
	l2.8,0.9h2.6c0.3-5.9,0.5-11.8,0.7-17.7L370.1,105.9z"/>
<path class="st0" d="M132.4,97.1v61.8c104.6,0,184.2-36.4,197.5-44.5c14.3,35.6,40.2,44.5,40.2,44.5h9.5V97.1H132.4z"/>
<path class="st8" d="M379.2,255.6l-15.1-0.3c-6.7,12.2-26.9,32.3-87.1,32.3v17.7c80.4,0,101.1-34.3,106.3-50.1
	C382,255.5,380.6,255.7,379.2,255.6z"/>
<path class="st9" d="M269.2,309h-8.8c-7.3,0-13.2-5.9-13.2-13.2l0,0c0-7.3,5.9-13.2,13.2-13.2h8.8c7.3,0,13.2,5.9,13.2,13.2l0,0
	C282.5,303,276.6,309,269.2,309z"/>
</svg>
