<?xml version="1.0" encoding="utf-8"?>
<!-- Generator: Adobe Illustrator 22.0.1, SVG Export Plug-In . SVG Version: 6.00 Build 0)  -->
<svg version="1.1" id="Capa_1" xmlns="http://www.w3.org/2000/svg" xmlns:xlink="http://www.w3.org/1999/xlink" x="0px" y="0px"
	 viewBox="0 0 512 512" style="enable-background:new 0 0 512 512;" xml:space="preserve">
<style type="text/css">
	.st0{fill:#FEDBAB;}
	.st1{fill:#E3C498;}
	.st2{fill:#E75152;}
</style>
<path class="st0" d="M298.7,256L298.7,256c0-28.5,46.2-47.9,71.1-85.3c28.4-42.7,28.4-142.2,28.4-142.2H256H113.8
	c0,0,0,99.6,28.4,142.2c24.9,37.4,71.1,56.9,71.1,85.3v0c0,28.5-46.2,47.9-71.1,85.3c-28.4,42.7-28.4,142.2-28.4,142.2H256h142.2
	c0,0,0-99.6-28.4-142.2C344.8,303.9,298.7,284.5,298.7,256"/>
<path class="st1" d="M298.7,341.3c-14.2,0-29.3-14.2-29.3-28.4c0.8-24.4,0.8-40.5,0.8-56.9c0-45.8,43.1-64.9,69.7-99.5H172.1
	c26.5,34.7,69.7,53.8,69.7,99.5c0,16.4,0,32.6,0.8,56.9c0,14.2-15.1,28.4-29.3,28.4c-28.4,0-51.1,25.4-56.9,42.7
	c-14.2,42.7-14.2,99.6-14.2,99.6h99.5H256h113.8c0,0,0-56.9-14.2-99.6C349.8,366.7,327.1,341.3,298.7,341.3"/>
<g>
	<path class="st2" d="M426.7,483.6c0,15.7-12.7,28.4-28.4,28.4H113.8c-15.7,0-28.4-12.7-28.4-28.4c0-15.7,12.7-28.4,28.4-28.4h284.4
		C413.9,455.1,426.7,467.8,426.7,483.6"/>
	<path class="st2" d="M426.7,28.4c0,15.7-12.7,28.4-28.4,28.4H113.8c-15.7,0-28.4-12.7-28.4-28.4S98.1,0,113.8,0h284.4
		C413.9,0,426.7,12.7,426.7,28.4"/>
</g>
</svg>
