<?xml version="1.0" encoding="utf-8"?>
<!-- Generator: Adobe Illustrator 22.0.1, SVG Export Plug-In . SVG Version: 6.00 Build 0)  -->
<svg version="1.1" id="Capa_1" xmlns="http://www.w3.org/2000/svg" xmlns:xlink="http://www.w3.org/1999/xlink" x="0px" y="0px"
	 viewBox="0 0 512.2 512.2" style="enable-background:new 0 0 512.2 512.2;" xml:space="preserve">
<style type="text/css">
	.st0{fill:#E8EAE9;}
	.st1{fill:#4ABAA5;}
	.st2{fill:#354B5E;}
	.st3{fill:#F3F3F3;}
	.st4{fill:#67C6B9;}
	.st5{fill:#435B6C;}
	.st6{fill:#E75152;}
	.st7{fill:#FFFFFF;}
</style>
<path class="st0" d="M484.3,92.8L125.9,56.5c-17.1-2.1-32,10.7-33.1,27.7L56.6,442.7c-2.1,17.1,10.7,32,27.7,33.1L442.7,512
	c17.1,2.1,32-10.7,33.1-27.7l36.3-358.4C513.1,108.8,501.4,93.9,484.3,92.8z"/>
<rect x="114.1" y="114.1" transform="matrix(9.929580e-02 -0.9951 0.9951 9.929580e-02 -26.8594 538.8721)" class="st1" width="340.3" height="340.3"/>
<path class="st2" d="M452.3,315.7l3.2-33.1l-52.3,14.9l10.7-104.5l50.1,5.3l1.1-10.7l-50.1-5.3l5.3-55.5l-10.7-1.1l-5.3,55.5
	l-36.3-3.2l-32,36.3l-56.5-48l5.3-52.3l-10.7-1.1l-5.3,52.3l-105.6,59.7l-37.3-74.7l-2.1,19.2l29.9,60.8l-38.4,21.3l-1.1,12.8
	l43.7-24.5l29.9,60.8l-81.1,46.9l-3.2,37.3l49.1-27.7l75.7,92.8l13.9,1.1L161.1,352l50.1-28.8l80,38.4l64-18.1l-5.3,56.5l18.1,22.4
	l-45.9,36.3l13.9,1.1l45.9-37.3l-22.4-26.7l5.3-56.5L452.3,315.7z M255,309.3L210.2,288l-11.7,6.4l-29.9-60.8l100.3-56.5L255,309.3z
	 M294.5,328.5l-29.9-13.9l13.9-135.5l58.7,50.1l35.2-39.5l30.9,3.2l-10.7,108.8L294.5,328.5z"/>
<path class="st3" d="M391.5,0H31C13.9,0,0.1,13.9,0.1,30.9v360.5c0,17.1,13.9,30.9,30.9,30.9h360.5c17.1,0,30.9-13.9,30.9-30.9V30.9
	C421.4,13.9,407.5,0,391.5,0z"/>
<rect x="40.6" y="40.5" class="st4" width="340.3" height="340.3"/>
<path class="st5" d="M380.9,225.1V192l-51.2,20.3V106.7h51.2V96h-51.2V40.5H319v56.5h-36.3l-26.7,38.4l-60.8-42.7V39.5h-10.7v53.3
	l-99.2,70.4L40.6,92.8V112l36.3,57.6l-36.3,25.6V208l41.6-28.8l36.3,57.6l-77.9,55.5v37.3l45.9-33.1l84.3,84.3h14.9L95,290.1
	l46.9-34.1l83.2,29.9l61.9-24.5v57.6l20.3,20.3l-40.5,41.6h14.9l41.6-41.6l-24.5-24.5v-56.5L380.9,225.1z M184.6,238.9l-46.9-17.1
	l-11.7,8.5l-36.3-57.6l93.9-66.1v132.3L184.6,238.9L184.6,238.9z M226.2,252.8l-30.9-10.7V105.6l64,43.7l30.9-42.7h29.9v108.8
	L226.2,252.8z"/>
<path class="st6" d="M111,85.3c-32,0-57.6,25.6-57.6,57.6S111,260.3,111,260.3s57.6-86.4,57.6-117.3C168.6,110.9,143,85.3,111,85.3z
	"/>
<circle class="st7" cx="111" cy="141.9" r="33.1"/>
<path class="st6" d="M313.7,165.3c-32,0-57.6,25.6-57.6,57.6s57.6,117.3,57.6,117.3s57.6-86.4,57.6-117.3S344.6,165.3,313.7,165.3z"
	/>
<circle class="st7" cx="313.7" cy="222.9" r="33.1"/>
</svg>
